Coordinates
nRows=14
nColumns=24

# SIMM Motion File Header:
name Coordinates
datacolumns 24
datarows 14
otherdata 1
range 0.31333000000000000000 0.32633000000000001000
endheader
time	pelvis_tx	pelvis_ty	pelvis_tz	pelvis_tilt	pelvis_list	pelvis_rotation	hip_flexion_r	hip_adduction_r	hip_rotation_r	knee_angle_r	ankle_angle_r	subtalar_angle_r	mtp_angle_r	hip_flexion_l	hip_adduction_l	hip_rotation_l	knee_angle_l	ankle_angle_l	subtalar_angle_l	mtp_angle_l	lumbar_extension	lumbar_bending	lumbar_rotation
      0.31333000000000000000	      1.50605326140399900000	      0.83800978416244332000	     -0.27345592834741728000	     -6.29339095445763430000	      3.51035786858604480000	     -4.07510510514494410000	     16.07068801377402400000	     -7.06509644050169070000	      2.31898532847898900000	    -63.72082022009102800000	     -9.96535700309545370000	     -0.00000000000000000316	      0.00000000000000045963	      8.81616114426424420000	      6.85607332539983890000	     -0.30024154791812702000	     -2.64661314689941780000	     -0.81168146856122081000	     -0.00000000000000226084	     -0.00000000000000613290	      8.10882583381281920000	     -4.38484669387869100000	      9.62093918750708530000
      0.31433000000000000000	      1.50676961537799840000	      0.83797798652265298000	     -0.27355046719353426000	     -6.30450655850092370000	      3.51542158202519110000	     -4.06992737266405410000	     16.24481985979646500000	     -7.04749207975117550000	      2.39616219450501910000	    -63.82037685303193100000	     -9.75385677445665240000	     -0.00000000000000000301	      0.00000000000000047202	      8.76149128621916160000	      6.86927846589881330000	     -0.30395830316624645000	     -2.62189921438028730000	     -0.78097823727993920000	     -0.00000000000000238967	     -0.00000000000000635988	      8.11378534936503120000	     -4.38465903651852960000	      9.59499891449892850000
      0.31533000000000000000	      1.50748572590121200000	      0.83794886525030121000	     -0.27364753417851745000	     -6.31400969937413860000	      3.52163053113752470000	     -4.06330152369027080000	     16.41624516659837200000	     -7.03168635445583680000	      2.47204772514878180000	    -63.91493811982871200000	     -9.55301221401468230000	     -0.00000000000000000285	      0.00000000000000048455	      8.70551316371389920000	      6.88443111770577070000	     -0.30646462447510120000	     -2.59740718021683300000	     -0.75578757987023293000	     -0.00000000000000252789	     -0.00000000000000657683	      8.11680907014770450000	     -4.38608492464907500000	      9.56774270626184810000
      0.31633000000000000000	      1.50820160246163850000	      0.83792230985268346000	     -0.27374702462622819000	     -6.32196697955849540000	      3.52893647338260140000	     -4.05528753474453030000	     16.58507542831535300000	     -7.01760367242721640000	      2.54669550163962420000	    -64.00470794312948900000	     -9.36238533718584160000	     -0.00000000000000000271	      0.00000000000000049725	      8.64828104093174050000	      6.90144986085846490000	     -0.30780962602637912000	     -2.57312880249370090000	     -0.73586909198859207000	     -0.00000000000000267515	     -0.00000000000000678375	      8.11797683796579510000	     -4.38905651817325190000	      9.53922498896336000000
      0.31733000000000000000	      1.50891747085568830000	      0.83789579772337675000	     -0.27384655685936488000	     -6.32989869344521860000	      3.53625569739315760000	     -4.04724918867882440000	     16.75385947535637500000	     -7.00354258049300160000	      2.62132202082785560000	    -64.09438028624686000000	     -9.17192822523239570000	     -0.00000000000000000264	      0.00000000000000051020	      8.59103068303485880000	      6.91849496425027950000	     -0.30913019292255445000	     -2.54886086986749440000	     -0.71598219628272630000	     -0.00000000000000282227	     -0.00000000000000698967	      8.11911303085451050000	     -4.39204777744003390000	      9.51068455762981560000
      0.31833000000000000000	      1.50963238553431770000	      0.83787433871105088000	     -0.27395096902980837000	     -6.33484463115229170000	      3.54512604075465540000	     -4.03636628100940790000	     16.91724631234330900000	     -6.99200290133900460000	      2.69346599253540030000	    -64.17266834471685400000	     -9.00129721122893400000	     -0.00000000000000001011	      0.00000000000000055094	      8.53165072577406040000	      6.93861856477863180000	     -0.30759714322512161000	     -2.52581277446766480000	     -0.69978481273250770000	     -0.00000000000000295410	     -0.00000000000000707947	      8.11656172571904650000	     -4.39733571284933160000	      9.47949145339898890000
      0.31933000000000000000	      1.51034730021294710000	      0.83785287969872491000	     -0.27405538120025186000	     -6.33979056885936560000	      3.55399638411615330000	     -4.02548337333999220000	     17.08063314933024700000	     -6.98046322218500760000	      2.76560996424294460000	    -64.25095640318684800000	     -8.83066619722547410000	     -0.00000000000000001759	      0.00000000000000059168	      8.47227076851326370000	      6.95874216530698500000	     -0.30606409352768882000	     -2.50276467906783530000	     -0.68358742918228899000	     -0.00000000000000308593	     -0.00000000000000716926	      8.11401042058358430000	     -4.40262364825862830000	      9.44829834916816220000
      0.32033000000000000000	      1.51106148827931670000	      0.83783303876676474000	     -0.27416146141651559000	     -6.34382713628408100000	      3.56294419566100110000	     -4.01357874816087270000	     17.24202273718217900000	     -6.96908876547838040000	      2.83690222975666370000	    -64.32392710255386700000	     -8.66523546687171910000	     -0.00000000000000002859	      0.00000000000000063833	      8.41250202131949010000	      6.97945596498690610000	     -0.30327447392638607000	     -2.48073531173628670000	     -0.66404073059560031000	     -0.00000000000000318661	     -0.00000000000000729413	      8.11025692700073190000	     -4.40813250234497560000	      9.41610905814643040000
      0.32133000000000000000	      1.51177497399718060000	      0.83781476188263371000	     -0.27426915397756707000	     -6.34698470001652910000	      3.57196688849515230000	     -4.00068652367165360000	     17.40148177001367500000	     -6.95787401394807150000	      2.90737123009048530000	    -64.39175800532173400000	     -8.50483136716293590000	     -0.00000000000000004300	      0.00000000000000069070	      8.35235746704994850000	      7.00074025530575290000	     -0.29927024504378075000	     -2.45969065409979580000	     -0.64125656060618774000	     -0.00000000000000325718	     -0.00000000000000745290	      8.10534138963378050000	     -4.41385489797384340000	      9.38295684598643480000
      0.32233000000000001000	      1.51248844601303260000	      0.83779649738334228000	     -0.27437685963771619000	     -6.35013604337835600000	      3.58098287694844460000	     -3.98778537714448200000	     17.56092027579304800000	     -6.94664853795976270000	      2.97783346268454570000	    -64.45951607805764600000	     -8.34443301075888040000	     -0.00000000000000005739	      0.00000000000000074288	      8.29221497455004730000	      7.02202207172257610000	     -0.29525267988398496000	     -2.43866408316520820000	     -0.61837138505639422000	     -0.00000000000000332764	     -0.00000000000000761149	      8.10041624365502240000	     -4.41956985320257800000	      9.34979530405849250000
      0.32333000000000001000	      1.51320031783079710000	      0.83777967925535723000	     -0.27448609508423338000	     -6.35256093683751110000	      3.58921589005837530000	     -3.97384226479287150000	     17.71796151685567700000	     -6.93417059938594350000	      3.04750532052593480000	    -64.51876864961795400000	     -8.18470538981678960000	     -0.00000000000000006988	      0.00000000000000077229	      8.23231326711673180000	      7.04301497193260410000	     -0.28967762918877055000	     -2.41974977910960740000	     -0.58369021148982125000	     -0.00000000000000338517	     -0.00000000000000774880	      8.09436894989162600000	     -4.42441587661337100000	      9.31554417930212610000
      0.32433000000000001000	      1.51391218964856170000	      0.83776286112737219000	     -0.27459533053075058000	     -6.35498583029666530000	      3.59744890316830630000	     -3.95989915244126060000	     17.87500275791831000000	     -6.92169266081212340000	      3.11717717836732430000	    -64.57802122117826100000	     -8.02497776887469700000	     -0.00000000000000008236	      0.00000000000000080171	      8.17241155968341460000	      7.06400787214263200000	     -0.28410257849355608000	     -2.40083547505400660000	     -0.54900903792324685000	     -0.00000000000000344269	     -0.00000000000000788611	      8.08832165612823140000	     -4.42926190002416310000	      9.28129305454575790000
      0.32533000000000001000	      1.51462228616677220000	      0.83774670611698276000	     -0.27470490921260060000	     -6.35714589390709330000	      3.60421069924755290000	     -3.94555481120671340000	     18.03024792873530700000	     -6.90681509679872630000	      3.18649893587521890000	    -64.62937518292888200000	     -7.85880470206910340000	     -0.00000000000000009322	      0.00000000000000082073	      8.11313906223627160000	      7.08370519142629900000	     -0.27787003939194727000	     -2.38393577856309950000	     -0.50075085316468093000	     -0.00000000000000348453	     -0.00000000000000811749	      8.08168356373604620000	     -4.43230610975396730000	      9.24651063828196840000
      0.32633000000000001000	      1.51533238268498250000	      0.83773055110659322000	     -0.27481448789445057000	     -6.35930595751752130000	      3.61097249532679900000	     -3.93121046997216570000	     18.18549309955230700000	     -6.89193753278532920000	      3.25582069338311350000	    -64.68072914467950300000	     -7.69263163526350980000	     -0.00000000000000010408	      0.00000000000000083975	      8.05386656478912680000	      7.10340251070996500000	     -0.27163750029033851000	     -2.36703608207219270000	     -0.45249266840611496000	     -0.00000000000000352637	     -0.00000000000000834887	      8.07504547134386110000	     -4.43535031948377070000	      9.21172822201818060000
